<svg width="120" height="64" viewBox="0 0 120 64" fill="none" xmlns="http://www.w3.org/2000/svg">
<path d="M115.025 30.08H113.948L113.347 32.7346H112.921L113.523 30.0786H112.444L112.521 29.7433H115.104L115.025 30.0786V30.08ZM115.456 29.7433H116.049L116.476 32.3158H116.483L118.068 29.7419H118.659L117.981 32.7346H117.573L118.228 30.1148H118.218L116.585 32.7346H116.179L115.761 30.1148H115.753L115.193 32.7346H114.785L115.456 29.7433Z" fill="black"/>
<path fill-rule="evenodd" clip-rule="evenodd" d="M12.6311 6.58088C14.2844 3.69949 18.1229 1.36627 21.2089 1.36627H42.8118L28.3318 26.944H1.14368L12.6311 6.58088ZM56.7866 14.1788C57.954 12.1447 60.6652 10.4946 62.8429 10.4946H77.6207L70.4903 23.264C69.3229 25.2981 66.6118 26.9482 64.434 26.9482H49.6578L56.7866 14.1788Z" fill="black"/>
<path fill-rule="evenodd" clip-rule="evenodd" d="M81.5556 3.36696C82.1748 2.29009 83.6133 1.41635 84.7644 1.41635H92.4978L88.3556 8.64C87.7363 9.71826 86.2993 10.592 85.1467 10.592H77.4133L81.557 3.36974L81.5556 3.36696ZM28.3304 26.9426H49.6933L38.2756 46.8466H16.9185L28.3319 26.9426H28.3304ZM38.277 47.3043H53.2533L46.4296 59.2C45.5704 60.697 43.5763 61.9103 41.9733 61.9103H29.8993L38.277 47.3043Z" fill="black"/>
<path d="M78.8326 33.2925L74.7318 40.4967C74.4652 40.9697 74.8 41.3078 75.3052 41.3523C75.6755 41.3843 76.0622 41.3468 76.5689 41.1576L74.9111 44.0584C74.3407 44.2045 74.0237 44.288 73.4696 44.288C71.0385 44.288 69.9052 42.7562 70.9837 40.857L77.877 28.7471C78.3259 27.9569 79.3777 27.3155 80.2237 27.3155H82.2311L80.6133 30.1662H82.6948L80.917 33.2925H78.8326ZM58.0948 33.8226L58.0311 33.9575L56.3333 36.9391L53.1511 42.5266C52.8829 42.9969 52.4029 43.417 51.877 43.68C51.5425 43.8588 51.1668 43.9586 50.7822 43.9708H48.7185L52.7215 36.9377L54.4963 33.8212C54.5111 33.7795 54.5303 33.7377 54.5555 33.7002C54.7303 33.2814 54.5259 32.9586 54.0622 32.9586C53.5511 32.9586 52.9185 33.344 52.6459 33.8212L50.8726 36.9377L47.6889 42.5266C47.2355 43.3238 46.1748 43.9708 45.3215 43.9708H43.2578L49.0355 33.8212C50.2666 31.449 51.7289 29.8295 55.9037 29.8295H61.3511C63.4355 29.8295 65.1674 30.9662 63.5511 33.8226L58.5985 42.5266C58.1437 43.3238 57.0844 43.9708 56.2296 43.9708H54.1659L58.1659 36.9377L59.9407 33.8226C60.2133 33.3454 60.0192 32.96 59.5081 32.96C58.997 32.96 58.3674 33.3454 58.0948 33.8226ZM100.818 33.2188L99.5289 35.4838H96.0415L97.0829 33.6529C97.3526 33.1798 97.16 32.7972 96.6533 32.7972C96.1466 32.7972 95.5185 33.1812 95.2503 33.6542L91.7437 39.8122L91.4326 40.3617C91.1629 40.8348 91.3555 41.2174 91.8622 41.2174C92.3674 41.2174 92.9955 40.9113 93.5378 39.8762L94.0118 39.0414H93.1303L94.5348 36.5815H98.9052L96.5096 40.7889L96.477 40.8445C95.3955 42.7464 92.5466 44.288 90.114 44.288C87.6815 44.288 86.5881 42.7492 87.6666 40.8515L88.2563 39.8135L92.0429 33.1617C93.1244 31.2626 95.9733 29.7224 98.4044 29.7224C100.834 29.7224 101.93 31.264 100.853 33.1645L100.818 33.2202V33.2188ZM81.2622 40.3589C80.9926 40.832 81.1852 41.216 81.6918 41.216C82.197 41.216 82.8252 40.832 83.0948 40.3589L86.9052 33.6862C87.1748 33.2132 86.9822 32.8292 86.4755 32.8292C85.9689 32.8292 85.3407 33.2132 85.0726 33.6862L81.2622 40.3589ZM90.64 33.2522L86.3392 40.7875L86.3096 40.8431C85.2252 42.745 82.3763 44.2852 79.9437 44.2852C77.5096 44.2852 76.4177 42.7464 77.4948 40.8487L81.8622 33.1923C82.9466 31.2932 85.794 29.7544 88.2252 29.7544C90.6563 29.7544 91.754 31.2946 90.674 33.1951L90.64 33.2522ZM64.7659 40.3589C64.4963 40.832 64.6903 41.216 65.1955 41.216C65.6992 41.216 66.3289 40.832 66.5985 40.3589L70.4103 33.6862C70.6785 33.2132 70.4859 32.8292 69.9807 32.8292C69.4755 32.8292 68.8459 33.2132 68.5763 33.6862L64.7659 40.3589ZM73.9911 33.2522L69.6903 40.7875L69.6607 40.8431C68.5777 42.745 65.7289 44.2852 63.2948 44.2852C60.8607 44.2852 59.7689 42.7464 60.8459 40.8487L65.2148 33.1923C66.2978 31.2932 69.1452 29.7544 71.5792 29.7544C74.0133 29.7544 75.1066 31.2946 74.0252 33.1951L73.9911 33.2522ZM105.434 33.6682L105.267 33.9506L103.735 36.6442H104.342C105.019 36.6442 105.859 36.1335 106.219 35.5005L107.267 33.6709C107.535 33.1979 107.344 32.8153 106.837 32.8153C106.333 32.8153 105.704 33.1951 105.434 33.6682ZM102.022 39.6508L100.373 42.5489C99.9244 43.3391 98.8726 43.9805 98.0266 43.9805H95.9807L100.381 36.249L101.708 33.9102C103.591 30.4682 105.901 29.7224 108.591 29.7224C111.628 29.7224 112.019 31.6007 110.698 33.9214L110.603 34.0842L109.449 36.1099L109.376 36.2449C108.281 38.1662 105.382 39.7259 102.899 39.7259C102.606 39.7259 102.313 39.7009 102.022 39.6508Z" fill="#C30000"/>
</svg>
