<svg width="212" height="132" viewBox="0 0 212 132" fill="none" xmlns="http://www.w3.org/2000/svg">
<path d="M203.211 62.04H201.308L200.246 67.5151H199.495L200.557 62.0371H198.652L198.788 61.3456H203.35L203.211 62.0371V62.04ZM203.973 61.3456H205.02L205.773 66.6514H205.787L208.587 61.3427H209.631L208.433 67.5151H207.713L208.87 62.1118H208.851L205.967 67.5151H205.25L204.512 62.1118H204.496L203.507 67.5151H202.787L203.973 61.3456Z" fill="white"/>
<path fill-rule="evenodd" clip-rule="evenodd" d="M22.315 13.5731C25.2359 7.63019 32.0173 2.81793 37.4691 2.81793H75.6343L50.053 55.572H2.02057L22.315 13.5731ZM100.323 29.2438C102.386 25.0485 107.175 21.6452 111.023 21.6452H137.13L124.533 47.982C122.471 52.1773 117.681 55.5806 113.834 55.5806H87.7288L100.323 29.2438Z" fill="white"/>
<path fill-rule="evenodd" clip-rule="evenodd" d="M144.081 6.94433C145.176 4.72329 147.717 2.9212 149.751 2.9212H163.413L156.095 17.82C155.001 20.0439 152.462 21.846 150.426 21.846H136.764L144.084 6.95007L144.081 6.94433ZM50.0503 55.5691H87.7916L67.6202 96.6211H29.8894L50.053 55.5691H50.0503ZM67.6228 97.5652H94.0809L82.0257 122.1C80.5077 125.188 76.9848 127.69 74.1529 127.69H52.822L67.6228 97.5652Z" fill="white"/>
<path d="M139.271 68.6658L132.026 83.5244C131.555 84.5001 132.147 85.1974 133.039 85.2892C133.693 85.3552 134.377 85.2777 135.272 84.8874L132.343 90.8705C131.335 91.1718 130.775 91.344 129.796 91.344C125.501 91.344 123.499 88.1846 125.405 84.2676L137.583 59.2909C138.376 57.661 140.234 56.3381 141.729 56.3381H145.275L142.417 62.2179H146.094L142.953 68.6658H139.271ZM102.634 69.7591L102.522 70.0374L99.5222 76.1869L93.9003 87.7111C93.4265 88.681 92.5785 89.5476 91.6494 90.09C91.0585 90.4588 90.3948 90.6646 89.7152 90.6897H86.0694L93.1413 76.1841L96.2768 69.7562C96.3029 69.6701 96.337 69.5841 96.3815 69.5066C96.6903 68.6428 96.3291 67.9771 95.5099 67.9771C94.6069 67.9771 93.4894 68.772 93.0078 69.7562L89.8749 76.1841L84.2504 87.7111C83.4495 89.3554 81.5755 90.6897 80.0679 90.6897H76.4221L86.6295 69.7562C88.8044 64.8636 91.3877 61.5234 98.7632 61.5234H108.387C112.069 61.5234 115.129 63.8679 112.274 69.7591L103.524 87.7111C102.721 89.3554 100.849 90.6897 99.339 90.6897H95.6931L102.76 76.1841L105.895 69.7591C106.377 68.7748 106.034 67.98 105.131 67.98C104.228 67.98 103.116 68.7748 102.634 69.7591ZM178.111 68.5137L175.834 73.1854H169.673L171.513 69.409C171.99 68.4334 171.649 67.6442 170.754 67.6442C169.859 67.6442 168.749 68.4362 168.276 69.4119L162.08 82.1126L161.531 83.2461C161.055 84.2217 161.395 85.0108 162.29 85.0108C163.182 85.0108 164.292 84.3795 165.25 82.2446L166.088 80.5228H164.53L167.011 75.4494H174.732L170.5 84.127L170.443 84.2418C168.532 88.1645 163.499 91.344 159.201 91.344C154.904 91.344 152.972 88.1702 154.878 84.2561L155.919 82.1154L162.609 68.396C164.52 64.4791 169.553 61.3025 173.848 61.3025C178.14 61.3025 180.077 64.482 178.174 68.4018L178.111 68.5166V68.5137ZM143.563 83.2403C143.087 84.216 143.427 85.008 144.322 85.008C145.215 85.008 146.324 84.216 146.801 83.2403L153.532 69.4779C154.009 68.5022 153.669 67.7102 152.773 67.7102C151.878 67.7102 150.769 68.5022 150.295 69.4779L143.563 83.2403ZM160.131 68.5826L152.533 84.1241L152.48 84.2389C150.564 88.1616 145.531 91.3382 141.234 91.3382C136.934 91.3382 135.005 88.1645 136.907 84.2504L144.623 68.4592C146.539 64.5422 151.569 61.3685 155.864 61.3685C160.159 61.3685 162.099 64.5451 160.191 68.4649L160.131 68.5826ZM114.42 83.2403C113.943 84.216 114.286 85.008 115.179 85.008C116.069 85.008 117.181 84.216 117.657 83.2403L124.392 69.4779C124.865 68.5022 124.525 67.7102 123.633 67.7102C122.74 67.7102 121.628 68.5022 121.151 69.4779L114.42 83.2403ZM130.718 68.5826L123.12 84.1241L123.067 84.2389C121.154 88.1616 116.121 91.3382 111.821 91.3382C107.521 91.3382 105.592 88.1645 107.494 84.2504L115.213 68.4592C117.126 64.5422 122.156 61.3685 126.457 61.3685C130.757 61.3685 132.688 64.5451 130.778 68.4649L130.718 68.5826ZM186.267 69.4406L185.971 70.0231L183.265 75.5786H184.338C185.534 75.5786 187.018 74.5254 187.654 73.2198L189.504 69.4463C189.978 68.4707 189.641 67.6815 188.745 67.6815C187.856 67.6815 186.743 68.4649 186.267 69.4406ZM180.239 81.7797L177.326 87.757C176.533 89.3869 174.675 90.7098 173.18 90.7098H169.566L177.339 74.7636L179.684 69.9399C183.011 62.8406 187.091 61.3025 191.844 61.3025C197.21 61.3025 197.901 65.1764 195.566 69.9628L195.399 70.2986L193.36 74.4767L193.231 74.755C191.297 78.7179 186.175 81.9347 181.789 81.9347C181.27 81.9347 180.752 81.883 180.239 81.7797Z" fill="white"/>
</svg>
